<?xml version="1.0" encoding="UTF-8" standalone="no"?>
<!-- Created with Inkscape (http://www.inkscape.org/) -->

<svg
   width="128"
   height="76.988075"
   viewBox="0 0 33.866666 20.369761"
   version="1.1"
   id="svg1"
   inkscape:version="1.3.2 (1:1.3.2+202311252150+091e20ef0f)"
   sodipodi:docname="monogram.svg"
   xmlns:inkscape="http://www.inkscape.org/namespaces/inkscape"
   xmlns:sodipodi="http://sodipodi.sourceforge.net/DTD/sodipodi-0.dtd"
   xmlns="http://www.w3.org/2000/svg"
   xmlns:svg="http://www.w3.org/2000/svg">
  <sodipodi:namedview
     id="namedview1"
     pagecolor="#ffffff"
     bordercolor="#000000"
     borderopacity="0.25"
     inkscape:showpageshadow="2"
     inkscape:pageopacity="0.0"
     inkscape:pagecheckerboard="0"
     inkscape:deskcolor="#d1d1d1"
     inkscape:document-units="mm"
     showgrid="false"
     showguides="true"
     inkscape:zoom="4.835241"
     inkscape:cx="71.971593"
     inkscape:cy="45.60269"
     inkscape:current-layer="layer1">
    <inkscape:grid
       id="grid1"
       units="px"
       originx="-1.3333334e-07"
       originy="-6.7484523"
       spacingx="0.13229166"
       spacingy="0.13229166"
       empcolor="#0099e5"
       empopacity="0.30196078"
       color="#0099e5"
       opacity="0.14901961"
       empspacing="2"
       dotted="false"
       gridanglex="30"
       gridanglez="30"
       visible="false" />
  </sodipodi:namedview>
  <defs
     id="defs1" />
  <g
     inkscape:label="Layer 1"
     inkscape:groupmode="layer"
     id="layer1"
     transform="translate(-1.3333334e-7,-6.7484525)">
    <path
       id="path8"
       style="color:#000000;fill:#000000;fill-opacity:0.9937;stroke-width:0.973586;-inkscape-stroke:none"
       d="M 33.866667,6.7506198 C 27.997758,6.6721138 23.650249,8.729981 20.793732,12.335697 18.489191,15.24467 17.153586,19.142886 16.710453,23.717662 15.255478,18.769307 13.80015,13.821039 12.344927,8.8727579 h -2.04164 V 11.063319 L 6.4942059,24.0145 2.0416397,8.8727579 H 1.3333334e-7 V 11.063319 L 4.7222352,27.117209 6.762869,27.117712 v -2.189556 l 3.809081,-12.951181 4.453572,15.140234 1.895737,5.03e-4 0.137853,5.02e-4 v -5.02e-4 h 0.007 v -0.387399 c 0.08028,-5.801738 1.432462,-10.669332 4.130605,-14.075138 0.178879,-0.225794 0.364223,-0.445033 0.554936,-0.658075 l 4.447535,15.120109 h 2.685124 l -5.009544,-17.03446 c 2.558325,-1.8603897 5.861677,-2.8721134 9.986325,-2.8169397 z" />
  </g>
</svg>
