<?xml version="1.0" encoding="UTF-8" standalone="no"?>
<!-- Created with Inkscape (http://www.inkscape.org/) -->

<svg
   width="256"
   height="256"
   viewBox="0 0 67.733335 67.733333"
   version="1.1"
   id="svg1"
   inkscape:version="1.3.2 (1:1.3.2+202311252150+091e20ef0f)"
   sodipodi:docname="drawing.svg"
   xmlns:inkscape="http://www.inkscape.org/namespaces/inkscape"
   xmlns:sodipodi="http://sodipodi.sourceforge.net/DTD/sodipodi-0.dtd"
   xmlns="http://www.w3.org/2000/svg"
   xmlns:svg="http://www.w3.org/2000/svg">
  <sodipodi:namedview
     id="namedview1"
     pagecolor="#ffffff"
     bordercolor="#000000"
     borderopacity="0.25"
     inkscape:showpageshadow="2"
     inkscape:pageopacity="0.0"
     inkscape:pagecheckerboard="0"
     inkscape:deskcolor="#d1d1d1"
     inkscape:document-units="mm"
     inkscape:zoom="0.32032749"
     inkscape:cx="-1000.5385"
     inkscape:cy="118.6286"
     inkscape:window-width="2048"
     inkscape:window-height="1091"
     inkscape:window-x="0"
     inkscape:window-y="30"
     inkscape:window-maximized="1"
     inkscape:current-layer="layer1" />
  <defs
     id="defs1" />
  <g
     inkscape:label="Layer 1"
     inkscape:groupmode="layer"
     id="layer1"
     transform="translate(-93.927083,-39.422918)">
    <rect
       id="rect1"
       width="67.73333"
       height="67.73333"
       x="93.927086"
       y="39.422916"
       style="stroke-width:0.264583;fill:#cc0000;fill-opacity:1" />
    <g
       id="g63"
       style="display:inline"
       transform="matrix(0.64330757,0,0,-0.64330757,87.48604,167.70899)">
      <g
         id="g57">
        <path
           id="path144-6"
           style="fill:#ffffff;fill-opacity:1;fill-rule:nonzero;stroke:none;stroke-width:1.19115"
           d="m 79.92532,184.4633 c 0.19654,-0.70516 0.393219,-1.41134 0.589759,-2.1165 0.580093,-0.23705 1.157778,-0.47486 1.737883,-0.71191 -0.776645,0.9422 -1.551009,1.88621 -2.327642,2.82841 z m -0.225085,-0.0157 c -0.487188,-0.6861 -0.97271,-1.36996 -1.458694,-2.05369 -1.130218,-0.35135 -2.232029,-0.78452 -3.320459,-1.24759 0.24062,-0.081 0.480012,-0.16384 0.72062,-0.24602 -1.318609,-0.86954 -2.638073,-1.7402 -3.959066,-2.60856 0.480035,-0.0214 0.957731,-0.0437 1.437755,-0.0627 -1.125634,-0.52769 -1.677934,-1.13357 -1.976917,-1.60527 -0.529566,-0.82897 -1.07616,-1.59363 -1.502346,-1.98391 -0.726499,-0.72185 -1.715693,-0.95607 -2.653931,-1.28072 -1.230021,-0.45021 -2.130616,-0.90267 -2.962753,-1.42554 0.258457,0.43147 0.634625,0.90014 1.177769,1.31736 -0.708731,0.0239 -1.737698,0.0208 -2.961016,-0.12214 -5.400686,-0.63012 -9.090773,-3.32912 -10.352209,-4.27488 -3.110098,-2.33467 -4.991957,-5.01432 -6.061611,-6.86775 4.111306,-0.21245 6.437975,2.39208 7.124239,3.3065 0.421555,-0.18502 0.72415,-0.43791 0.926512,-0.64908 0.245411,1.83236 0.917599,3.51336 1.645395,5.19442 0.608175,-5.28881 -2.917007,-8.55287 -4.042825,-9.45012 -0.02743,-1.05179 -0.07154,-2.34624 -0.146569,-3.83519 -0.06193,-1.20425 -0.109735,-1.86222 -0.589759,-2.18979 -0.221554,-0.15008 -0.379559,-0.27203 -1.804176,-0.40305 -1.930255,-0.36242 5.258586,-0.16402 6.40884,-0.16402 -0.473031,0.1437 -0.897388,0.37146 -1.242325,0.68921 -0.669444,0.61584 -0.883776,1.4034 -0.945716,1.67856 -0.487744,2.17535 1.380375,3.69369 1.764044,3.88578 1.576498,0.5779 2.789943,1.78823 3.859609,3.04127 0.699204,0.86835 1.992381,1.26007 3.020341,1.86874 0.110777,-0.16438 0.220744,-0.32767 0.331521,-0.49205 -1.117299,-1.38411 -2.236855,-2.76688 -3.355347,-4.151 0.01852,-1.74775 0.206194,-3.76617 0.701428,-5.95344 -0.493752,-0.2546 -0.996232,-0.44255 -1.490111,-0.56707 1.118179,-0.10371 30.707893,0.0586 22.57491,0.17971 -1.093477,0.002 -2.706773,1.13266 -2.809216,2.21423 -0.182244,1.86772 -0.358701,3.77482 -0.191933,5.63063 0.17391,1.93563 0.479398,3.85754 0.771227,5.78245 0.375277,1.28248 1.206801,3.90158 2.58412,6.93055 1.609997,0.31186 3.23605,0.57199 4.840225,0.90037 1.161598,0.40227 1.860618,1.91928 1.809408,2.19502 -0.187801,1.0113 -2.156649,0.97545 -3.070938,1.48137 -0.792757,0.43232 -0.593161,0.86557 -0.828803,1.16034 -0.813883,1.01809 -2.194142,1.30152 -3.330923,1.88967 -0.593,2.1118 -0.640737,2.28796 -0.64032,2.28744 z m -21.70771,-30.65181 h -2.643456 c 0.779029,-0.23666 1.695714,-0.23898 2.643456,0 z m 24.967096,25.44519 c -0.857291,0.70538 -1.618957,0.75135 -2.434078,0.12737 0.05244,-0.25304 4.397995,-0.37035 5.14209,-1.63318 0.239415,-0.40618 0.316219,-1.01246 0.05058,-1.29119 -0.178679,-0.18701 -0.464188,-0.17862 -0.610699,-0.17623 -0.706358,0.0167 -1.608701,-0.005 -2.802236,-0.0593 8.91e-4,-0.0882 0.0023,-0.17882 0.0035,-0.26696 1.38769,-0.0846 2.44453,-0.14656 2.44453,-0.14656 -0.01667,-0.0322 -0.03392,-0.0651 -0.05058,-0.096 l -3.803792,-0.45487 c -1.808205,-1.28885 -2.345781,-3.68773 -2.994169,-5.72835 -0.369258,-1.08515 -1.002112,-2.59348 -2.144426,-4.32899 l 0.261733,5.31307 -3.119797,-1.67156 6.42978,6.72291 -1.755328,-0.56183 2.254358,2.22468 -2.26657,-0.45018 1.495343,1.66983 -2.003089,-0.27917 c 2.06724,2.86057 5.462927,2.73462 5.902876,1.08644 z M 69.580091,166.0289 c 2.271524,-3.45195 2.712966,-7.56829 3.767132,-11.77426 -3.426941,0 -6.690066,0.005 -9.952635,-0.003 -1.356726,-0.002 -3.146027,2.57092 -2.076373,4.07773 1.378164,1.94276 2.788021,3.85958 4.262678,5.72136 1.083626,0.61421 2.392696,0.16177 3.555996,-0.0611 0.171526,0.7826 0.325283,1.48824 0.443202,2.03974 z m 5.48756,-3.64673 c 0.568182,-2.66938 1.137614,-5.33616 1.734376,-8.14847 -3.020758,0.38832 -3.324568,3.83292 -1.734376,8.14847 z"
           sodipodi:nodetypes="ccccsccccccccccccccccccccccccccccccccscccscscscccccsccccccccccccccccccscccccssccc" />
        <path
           d="m 77.262383,146.41676 c -1.588154,-0.16206 -2.914703,1.15986 -2.758435,2.74917 0.115755,1.17376 1.064944,2.1241 2.238696,2.23986 1.584682,0.15742 2.906601,-1.16102 2.753805,-2.7457 -0.114597,-1.17376 -1.061471,-2.1241 -2.234066,-2.24333 m -11.50949,0 c -1.586997,-0.16206 -2.914703,1.15986 -2.757277,2.74917 0.115755,1.17376 1.063786,2.1241 2.237539,2.23986 1.585839,0.15742 2.907758,-1.16102 2.753804,-2.7457 -0.11344,-1.17376 -1.060313,-2.1241 -2.234066,-2.24333 m -11.508332,0 c -1.588155,-0.16206 -2.914703,1.15986 -2.758435,2.74917 0.115755,1.17376 1.064944,2.1241 2.238696,2.23986 1.584682,0.15742 2.906601,-1.16102 2.752647,-2.7457 -0.11344,-1.17376 -1.060313,-2.1241 -2.232908,-2.24333 m 7.770613,8.33665 c -3.070972,-0.0324 -6.145417,0.0208 -9.209444,-0.17942 -2.195867,-0.14353 -4.384788,-0.57645 -6.558661,-1.00822 -1.540695,-0.30791 -3.050137,-0.83228 -4.574626,-1.25941 -0.861215,-0.24193 -0.862373,-0.24309 -1.352015,0.62507 -0.512264,0.88013 -0.580308,1.65486 -1.720115,1.64372 -0.557237,-0.002 -0.633178,-0.19206 -0.633178,-0.19206 0,0 0.01273,-2.19596 -0.0058,-3.09885 -0.0012,-0.14585 -0.100706,-0.37736 -0.199098,-0.41555 -0.87742,-0.34958 -1.765259,-0.66559 -2.675091,-1.00013 0.03588,0.67138 0.0845,1.25826 0.09145,1.84513 0.0046,0.33338 -0.03473,0.69222 -0.43871,0.67601 -0.37273,-0.0139 -0.399354,-0.37389 -0.390093,-0.66674 0.01852,-0.67022 0.08797,-1.33929 0.137748,-2.04539 -0.288229,-0.13543 -0.611185,-0.28591 -0.931826,-0.43524 0.0012,-0.0857 0.0023,-0.0961 0.0035,-0.18173 0.324113,-0.13891 0.649384,-0.27666 0.961922,-0.40977 -0.06714,-0.57183 -0.167845,-1.09736 -0.17942,-1.62404 -0.0069,-0.40746 -0.159742,-1.04643 0.410929,-1.06147 0.589191,-0.0127 0.42019,0.62044 0.42019,1.03253 0.0012,0.46302 -0.06019,0.92835 -0.101865,1.47124 0.78829,-0.29054 1.530278,-0.61581 2.295416,-0.82765 0.512793,-0.14237 0.640124,-0.4306 0.615815,-1.01516 -0.04167,-0.97813 -0.01158,-1.95973 -0.01158,-2.86841 1.282915,-0.43652 1.795648,0.35686 2.282682,1.38906 0.59961,1.08578 0.597295,1.0742 1.669183,0.71421 4.442665,-1.49324 8.991825,-2.23291 13.594232,-2.28037 8.783467,-0.0915 17.568091,-0.009 26.353873,-0.0428 1.725902,-0.007 3.382352,0.30444 4.994815,0.98855 1.573106,0.66674 3.110329,1.43188 4.277136,2.93438 0.760508,0.97928 0.829961,2.14725 0.133118,3.18788 -1.216941,1.76158 -3.211456,2.61041 -5.129091,3.39509 -1.508284,0.61697 -3.038561,0.75009 -4.605879,0.71999"
           style="fill:#ffffff;fill-opacity:1;fill-rule:nonzero;stroke:none;stroke-width:1.15755"
           id="path145-6"
           sodipodi:nodetypes="ccccccccccccccccscccccccccccccccccccccccccccsccc" />
      </g>
      <g
         id="g58">
        <text
           xml:space="preserve"
           style="font-style:normal;font-variant:normal;font-weight:bold;font-stretch:condensed;font-size:11px;font-family:'Univers LT Std';-inkscape-font-specification:'Univers LT Std Bold Condensed';text-align:center;letter-spacing:0.6px;text-anchor:middle;display:inline;fill:#ffffff;fill-opacity:1;stroke-width:1.41732"
           x="62.772472"
           y="-111.18126"
           id="text143-8"
           transform="scale(1,-1)"><tspan
             sodipodi:role="line"
             id="tspan143-5"
             x="63.072472"
             y="-111.18126"
             style="font-style:normal;font-variant:normal;font-weight:300;font-stretch:condensed;font-size:11px;font-family:'Univers LT Std';-inkscape-font-specification:'Univers LT Std Light Condensed';letter-spacing:0.6px;fill:#ffffff;fill-opacity:1;stroke-width:1.41732">AquaPack Robotics</tspan></text>
        <path
           d="m 14.212631,127.53557 v 7.738 h 2.185 l 2.059,-5.358 h 0.021 v 5.358 h 1.51 v -7.738 h -2.131 l -2.113,5.658 h -0.02 v -5.658 z"
           style="fill:#ffffff;fill-opacity:1;fill-rule:nonzero;stroke:none"
           id="path146-8" />
        <path
           d="m 21.277031,131.40347 c 0,2.048 0,3.998 2.669,3.998 1.651,0 2.316,-0.911 2.252,-2.572 h -1.587 c 0,1.028 -0.182,1.416 -0.665,1.416 -0.91,0 -1.031,-0.859 -1.031,-2.842 0,-1.982 0.121,-2.839 1.031,-2.839 0.749,0 0.719,0.963 0.741,1.575 h 1.596 c 0,-2.067 -0.825,-2.733 -2.337,-2.733 -2.669,0 -2.669,1.974 -2.669,3.997"
           style="fill:#ffffff;fill-opacity:1;fill-rule:nonzero;stroke:none"
           id="path147-2" />
        <path
           d="m 31.792131,127.40677 c -2.004,0 -2.379,1.182 -2.295,2.518 h 1.621 c 0,-0.739 0.03,-1.361 0.92,-1.361 0.548,0 0.813,0.355 0.813,0.879 0,1.396 -3.257,1.48 -3.257,3.784 0,1.21 0.579,2.174 2.552,2.174 1.575,0 2.356,-0.705 2.251,-2.325 h -1.576 c 0,0.58 -0.098,1.169 -0.751,1.169 -0.524,0 -0.835,-0.29 -0.835,-0.825 0,-1.47 3.257,-1.34 3.257,-3.772 0,-2.004 -1.47,-2.241 -2.7,-2.241"
           style="fill:#ffffff;fill-opacity:1;fill-rule:nonzero;stroke:none"
           id="path148-4" />
        <path
           d="m 40.258931,135.27387 v -1.287 h -1.799 v -6.451 h -1.619 v 6.451 h -1.801 v 1.287 z"
           style="fill:#ffffff;fill-opacity:1;fill-rule:nonzero;stroke:none"
           id="path149-2" />
        <path
           d="m 42.893831,133.78277 h -0.022 l -0.739,-3.344 h 1.543 z m -3.117,-6.247 2.14,7.738 h 2.134 l 2.1,-7.738 h -1.704 l -0.428,1.716 h -2.209 l -0.438,-1.716 z"
           style="fill:#ffffff;fill-opacity:1;fill-rule:nonzero;stroke:none"
           id="path150-0" />
        <path
           d="m 50.871631,135.27387 v -1.287 h -1.803 v -6.451 h -1.619 v 6.451 h -1.799 v 1.287 z"
           style="fill:#ffffff;fill-opacity:1;fill-rule:nonzero;stroke:none"
           id="path151-2" />
        <path
           d="m 51.622931,127.53557 v 7.738 h 4.221 v -1.19 h -2.603 v -1.909 h 2.4 v -1.188 h -2.4 v -2.261 h 2.69 v -1.19 z"
           style="fill:#ffffff;fill-opacity:1;fill-rule:nonzero;stroke:none"
           id="path152-9" />
        <path
           d="m 60.071131,130.40907 c 0,-1.008 0,-2.445 1.575,-2.445 1.576,0 1.576,1.437 1.576,2.445 v 4.865 h 0.685 v -5.372 c 0,-1.992 -1.051,-2.517 -2.261,-2.517 -1.211,0 -2.261,0.525 -2.261,2.517 v 5.372 h 0.686 z"
           style="fill:#ffffff;fill-opacity:1;fill-rule:nonzero;stroke:none"
           id="path153-8" />
        <path
           d="m 65.935231,127.53557 v 7.738 h 1.052 l 3.138,-6.794 0.022,0.021 v 6.773 h 0.685 v -7.738 h -1.04 l -3.147,6.87 -0.023,-0.023 v -6.847 z"
           style="fill:#ffffff;fill-opacity:1;fill-rule:nonzero;stroke:none"
           id="path154-3" />
        <path
           d="m 73.676331,127.53587 h -0.687 v 7.738 h 0.687 z"
           style="fill:#ffffff;fill-opacity:1;fill-rule:nonzero;stroke:none"
           id="path155-1" />
        <path
           d="m 79.591631,135.27387 h 0.664 l -2.143,-7.738 h -0.855 l -2.157,7.738 h 0.73 l 1.835,-6.922 h 0.017 z"
           style="fill:#ffffff;fill-opacity:1;fill-rule:nonzero;stroke:none"
           id="path156-0" />
        <path
           d="m 85.156231,135.27387 v -0.578 h -2.818 v -2.893 h 2.693 v -0.582 h -2.693 v -3.107 h 2.892 v -0.578 h -3.577 v 7.738 z"
           style="fill:#ffffff;fill-opacity:1;fill-rule:nonzero;stroke:none"
           id="path157-4" />
        <path
           d="m 87.504131,131.86657 h 1.116 c 1.029,0 1.509,0.266 1.509,1.564 0,1.06 -0.418,1.265 -1.22,1.265 h -1.405 z m 0,-0.579 v -3.752 h -0.683 v 7.738 h 2.131 c 1.491,0 1.864,-0.493 1.864,-1.853 0,-0.967 -0.162,-1.609 -1.2,-1.845 v -0.021 c 1.083,-0.224 1.147,-0.353 1.147,-3.119 0,-0.299 0.053,-0.597 0.073,-0.9 h -0.65 c -0.067,0.226 -0.098,1.513 -0.11,1.927 -0.009,0.335 0.215,1.825 -1.272,1.825 z"
           style="fill:#ffffff;fill-opacity:1;fill-rule:nonzero;stroke:none"
           id="path158-3" />
        <path
           d="m 95.974731,133.31277 c -0.019,0.952 -0.258,1.532 -1.31,1.532 -0.833,0 -1.36,-0.29 -1.36,-1.2 0,-1.148 0.58,-1.178 1.46,-1.813 0.952,-0.683 1.926,-0.888 1.926,-2.389 0,-1.382 -0.704,-2.057 -2.055,-2.057 -1.51,0 -2.188,0.816 -2.125,2.327 h 0.712 c 0,-0.858 0.063,-1.749 1.442,-1.749 0.902,0 1.341,0.483 1.341,1.374 0,1.05 -0.697,1.348 -1.811,2.033 -1.497,0.924 -1.563,1.383 -1.575,2.156 -0.01,1.339 0.837,1.896 2.1,1.896 1.608,0 1.952,-0.996 1.952,-2.11 z"
           style="fill:#ffffff;fill-opacity:1;fill-rule:nonzero;stroke:none"
           id="path159-1" />
        <path
           d="m 99.308331,127.53587 h -0.685 v 7.738 h 0.685 z"
           style="fill:#ffffff;fill-opacity:1;fill-rule:nonzero;stroke:none"
           id="path160-9" />
        <path
           d="m 102.67323,134.69567 h -1.883 v 0.578 h 4.457 v -0.578 h -1.885 v -7.16 h -0.689 z"
           style="fill:#ffffff;fill-opacity:1;fill-rule:nonzero;stroke:none"
           id="path161-9" />
        <path
           d="m 108.20833,130.75067 -2.188,4.523 h 0.773 l 1.768,-3.848 1.854,3.848 h 0.686 l -2.206,-4.523 v -3.215 h -0.687 z"
           style="fill:#ffffff;fill-opacity:1;fill-rule:nonzero;stroke:none"
           id="path162-3" />
      </g>
    </g>
  </g>
</svg>
