<?xml version="1.0" encoding="UTF-8" standalone="no"?>
<svg
   id="svg13986"
   height="64"
   width="64"
   version="1.1"
   inkscape:version="1.4 (e7c3feb100, 2024-10-09)"
   sodipodi:docname="128.svg"
   inkscape:export-filename="/home/lains/Documents/Projects/lainsce.github.io/icons/jorts-big.png"
   inkscape:export-xdpi="90"
   inkscape:export-ydpi="90"
   xml:space="preserve"
   xmlns:inkscape="http://www.inkscape.org/namespaces/inkscape"
   xmlns:sodipodi="http://sodipodi.sourceforge.net/DTD/sodipodi-0.dtd"
   xmlns:xlink="http://www.w3.org/1999/xlink"
   xmlns="http://www.w3.org/2000/svg"
   xmlns:svg="http://www.w3.org/2000/svg"
   xmlns:rdf="http://www.w3.org/1999/02/22-rdf-syntax-ns#"
   xmlns:cc="http://creativecommons.org/ns#"
   xmlns:dc="http://purl.org/dc/elements/1.1/"><sodipodi:namedview
     pagecolor="#ffffff"
     bordercolor="#666666"
     borderopacity="1"
     objecttolerance="10"
     gridtolerance="10"
     guidetolerance="10"
     inkscape:pageopacity="0"
     inkscape:pageshadow="2"
     inkscape:window-width="1920"
     inkscape:window-height="1048"
     id="namedview69"
     showgrid="false"
     showguides="true"
     inkscape:guide-bbox="true"
     inkscape:zoom="1"
     inkscape:cx="259.5"
     inkscape:cy="22.5"
     inkscape:window-x="0"
     inkscape:window-y="0"
     inkscape:window-maximized="1"
     inkscape:current-layer="svg13986"
     inkscape:showpageshadow="2"
     inkscape:pagecheckerboard="0"
     inkscape:deskcolor="#d1d1d1"><inkscape:grid
       id="grid4"
       units="px"
       originx="-298"
       originy="0"
       spacingx="0.5"
       spacingy="0.5"
       empcolor="#e50000"
       empopacity="0.2"
       color="#e50000"
       opacity="0.10196078"
       empspacing="2"
       enabled="true"
       visible="false" /><inkscape:page
       x="0"
       y="0"
       width="64"
       height="64"
       id="page32"
       margin="0"
       bleed="0" /></sodipodi:namedview><defs
     id="defs13988"><linearGradient
       id="linearGradient18"
       inkscape:collect="always"><stop
         style="stop-color:#64baff;stop-opacity:1;"
         offset="0"
         id="stop10" /><stop
         style="stop-color:#4da1f2;stop-opacity:1;"
         offset="0.39903849"
         id="stop26" /><stop
         style="stop-color:#4da1f2;stop-opacity:1;"
         offset="0.61148691"
         id="stop25" /><stop
         style="stop-color:#64baff;stop-opacity:1;"
         offset="1"
         id="stop16" /></linearGradient><linearGradient
       id="linearGradient27416-1-2"><stop
         offset="0"
         style="stop-color:#55c1ec;stop-opacity:1"
         id="stop27420-2-0" /><stop
         offset="1"
         style="stop-color:#3689e6;stop-opacity:1"
         id="stop27422-3-5" /></linearGradient><linearGradient
       id="linearGradient3688-166-749-4-0-3-8"><stop
         offset="0"
         style="stop-color:#181818;stop-opacity:1"
         id="stop2883-4-0-1-8" /><stop
         offset="1"
         style="stop-color:#181818;stop-opacity:0"
         id="stop2885-9-2-9-6" /></linearGradient><linearGradient
       id="linearGradient3702-501-757-8-4-1-1"><stop
         offset="0"
         style="stop-color:#181818;stop-opacity:0"
         id="stop2895-8-9-9-1" /><stop
         offset="0.5"
         style="stop-color:#181818;stop-opacity:1"
         id="stop2897-7-8-7-7" /><stop
         offset="1"
         style="stop-color:#181818;stop-opacity:0"
         id="stop2899-4-5-1-5" /></linearGradient><linearGradient
       gradientUnits="userSpaceOnUse"
       xlink:href="#linearGradient3702-501-757-8-4-1-1"
       id="linearGradient13984"
       y2="39.999443"
       x2="25.058096"
       y1="47.027729"
       x1="25.058096" /><linearGradient
       id="linearGradient23"><stop
         id="stop11"
         style="stop-color:#ffffff;stop-opacity:1"
         offset="0" /><stop
         id="stop20"
         style="stop-color:#ffffff;stop-opacity:0.23529412"
         offset="0.08928572" /><stop
         id="stop21"
         style="stop-color:#ffffff;stop-opacity:0.15686275"
         offset="0.62903225" /><stop
         id="stop22"
         style="stop-color:#ffffff;stop-opacity:0.5;"
         offset="0.8214286" /><stop
         id="stop23"
         style="stop-color:#ffffff;stop-opacity:0.39215687"
         offset="1" /></linearGradient><linearGradient
       id="linearGradient4270"><stop
         id="stop4272"
         style="stop-color:#ffffff;stop-opacity:1"
         offset="0" /><stop
         id="stop4274"
         style="stop-color:#ffffff;stop-opacity:0.23529412"
         offset="0.0348749" /><stop
         id="stop4276"
         style="stop-color:#ffffff;stop-opacity:0.15686275"
         offset="0.96216321" /><stop
         id="stop4278"
         style="stop-color:#ffffff;stop-opacity:0.39215687"
         offset="1" /></linearGradient><linearGradient
       y2="42.091705"
       x2="23.99999"
       y1="5.9093657"
       x1="23.99999"
       gradientTransform="matrix(1.4324324,0,0,1.4362832,-2.37837,-2.4707846)"
       gradientUnits="userSpaceOnUse"
       id="linearGradient3904-0"
       xlink:href="#linearGradient4270" /><radialGradient
       gradientTransform="matrix(2.003784,0,0,1.4,27.98813,-17.4)"
       gradientUnits="userSpaceOnUse"
       xlink:href="#linearGradient3688-166-749-4-0-3-8"
       id="radialGradient2873-966-168-714-5"
       fy="43.5"
       fx="4.9929786"
       r="2.5"
       cy="43.5"
       cx="4.9929786" /><radialGradient
       gradientTransform="matrix(2.003784,0,0,1.4,-20.01187,-104.4)"
       gradientUnits="userSpaceOnUse"
       xlink:href="#linearGradient3688-166-749-4-0-3-8"
       id="radialGradient2875-742-326-419-0"
       fy="43.5"
       fx="4.9929786"
       r="2.5"
       cy="43.5"
       cx="4.9929786" /><filter
       inkscape:collect="always"
       style="color-interpolation-filters:sRGB"
       id="filter36-4"
       x="-0.056866141"
       y="-0.3159232"
       width="1.1137323"
       height="1.6318464"><feGaussianBlur
         inkscape:collect="always"
         stdDeviation="0.89980786"
         id="feGaussianBlur36-2" /></filter><linearGradient
       inkscape:collect="always"
       xlink:href="#linearGradient27416-1-2"
       id="linearGradient4"
       x1="31"
       y1="5"
       x2="31"
       y2="59"
       gradientUnits="userSpaceOnUse" /><linearGradient
       inkscape:collect="always"
       xlink:href="#linearGradient23"
       id="linearGradient11-2"
       x1="33"
       y1="6"
       x2="33"
       y2="48"
       gradientUnits="userSpaceOnUse" /><linearGradient
       inkscape:collect="always"
       xlink:href="#linearGradient18"
       id="linearGradient25-4"
       x1="31"
       y1="5"
       x2="31"
       y2="59.5"
       gradientUnits="userSpaceOnUse" /></defs><metadata
     id="metadata13991"><rdf:RDF><cc:Work
         rdf:about=""><dc:format>image/svg+xml</dc:format><dc:type
           rdf:resource="http://purl.org/dc/dcmitype/StillImage" /></cc:Work></rdf:RDF></metadata><g
     style="display:inline"
     id="g2036"
     transform="matrix(1.5000021,0,0,0.5555561,-4.00001,35.888879)"><g
       style="opacity:0.4"
       id="g3712"
       transform="matrix(1.052632,0,0,1.285713,-1.263158,-13.42854)"><rect
         style="fill:url(#radialGradient2873-966-168-714-5);fill-opacity:1;stroke:none"
         id="rect2801"
         y="40"
         x="38"
         height="7"
         width="5" /><rect
         style="fill:url(#radialGradient2875-742-326-419-0);fill-opacity:1;stroke:none"
         id="rect3696"
         transform="scale(-1)"
         y="-47"
         x="-10"
         height="7"
         width="5" /><rect
         style="fill:url(#linearGradient13984);fill-opacity:1;stroke:none"
         id="rect3700"
         y="40"
         x="10"
         height="7.0000005"
         width="28" /></g></g><rect
     width="55"
     height="55"
     rx="4"
     ry="4"
     x="4.5"
     y="4.5"
     id="rect5505-21-3-8-5-2-9"
     style="color:#000000;display:inline;overflow:visible;visibility:visible;fill:url(#linearGradient4);fill-rule:nonzero;stroke:none;stroke-width:1;marker:none;enable-background:accumulate" /><rect
     style="opacity:0.3;fill:none;stroke:url(#linearGradient3904-0);stroke-width:1;stroke-linecap:round;stroke-linejoin:round;stroke-miterlimit:4;stroke-dasharray:none;stroke-dashoffset:0;stroke-opacity:1"
     id="rect6741"
     y="5.5"
     x="5.5"
     ry="3"
     rx="3"
     height="53"
     width="53" /><path
     id="rect5505-21-9"
     style="display:inline;overflow:visible;opacity:0.75;fill:none;stroke:#002e99;stroke-linecap:round;stroke-linejoin:round;stroke-opacity:0.74902;marker:none;enable-background:accumulate"
     d="m 59.5,46 v 9.499998 c 0,2.216 -1.784,4 -4,4 h -47 c -2.216,0 -4,-1.784 -4,-4 V 46"
     sodipodi:nodetypes="cssssc" /><g
     id="g29"
     style="fill:none;fill-opacity:1;stroke:#000000"><path
       sodipodi:type="star"
       style="opacity:0.5;fill:none;fill-opacity:1;stroke:#000000;stroke-linecap:butt;stroke-linejoin:round;stroke-opacity:1"
       id="path28"
       inkscape:flatsided="false"
       sodipodi:sides="5"
       sodipodi:cx="41"
       sodipodi:cy="49"
       sodipodi:r1="9.2195444"
       sodipodi:r2="4.6097727"
       sodipodi:arg1="0.86217005"
       sodipodi:arg2="1.4904886"
       inkscape:rounded="0"
       inkscape:randomized="0.1"
       d="m 47.4834,56.288842 -6.252445,-2.619464 -4.217531,2.381399 -0.334709,-4.986838 -4.003705,-3.739088 4.510793,-2.030736 2.175151,-5.803188 4.536536,5.996827 6.134814,0.568494 -5.459341,4.436393 z"
       inkscape:transform-center-x="-0.35365701"
       inkscape:transform-center-y="-0.98559488"
       transform="translate(4.5166001,-0.28884198)" /><path
       sodipodi:type="star"
       style="opacity:0.5;fill:none;fill-opacity:1;stroke:#000000;stroke-linecap:butt;stroke-linejoin:round;stroke-opacity:1"
       id="path29"
       inkscape:flatsided="false"
       sodipodi:sides="5"
       sodipodi:cx="28"
       sodipodi:cy="56"
       sodipodi:r1="5"
       sodipodi:r2="2.5000002"
       sodipodi:arg1="-0.64350111"
       sodipodi:arg2="-0.015182578"
       inkscape:rounded="0"
       inkscape:randomized="0.1"
       d="m 32.051645,53.054434 -1.673137,2.482158 1.947052,2.89654 -3.673112,0.07463 -1.87506,2.427096 -0.423281,-3.596847 -3.693656,-1.408381 3.113258,-1.285725 0.339907,-3.459495 2.760847,2.354328 z"
       inkscape:transform-center-x="0.50699476"
       inkscape:transform-center-y="0.059631217"
       transform="translate(4.5166001,-3.9848624)" /></g><ellipse
     style="opacity:0.2;fill:#000000;fill-opacity:1;stroke:none;stroke-width:1;stroke-linecap:butt;stroke-linejoin:round;stroke-dasharray:none;stroke-opacity:1;filter:url(#filter36-4)"
     id="ellipse29"
     cx="30.964655"
     cy="53.499996"
     ry="3.4178226"
     rx="18.987915"
     transform="matrix(1.3166269,0,0,1.3166269,-8.7689,-20.364779)" /><path
     id="path4-3"
     style="display:inline;overflow:visible;opacity:1;fill:url(#linearGradient25-4);stroke:none;stroke-linecap:butt;stroke-linejoin:miter;stroke-opacity:0.74902;marker:none;enable-background:accumulate"
     d="m 8.5,4.5 c -2.216,0 -4,1.7644973 -4,4 0,10.255449 0,27.029955 -1.62075,37.357534 -0.1863,1.187117 0.49323,2.583061 1.62056,2.998165 C 10.84843,51.19338 21.22256,52 32,52 40.5661,52 49.47105,50.235485 55.95032,48.330866 58.48854,47.58474 62.34979,45.72687 62.06523,43.926663 60.43359,33.604947 59.43359,18.778363 59.43359,8.5 c 0,-2.2355027 -1.784,-4 -4,-4 H 32 Z"
     sodipodi:nodetypes="sscscsscscs" /><path
     id="rect2"
     style="display:inline;overflow:visible;opacity:0.75;fill:none;stroke:#002e99;stroke-linecap:butt;stroke-linejoin:miter;stroke-opacity:0.74902;marker:none;enable-background:accumulate"
     d="m 8.5,4.5 c -2.216,0 -4,1.7644973 -4,4 0,10.239191 0,26.976786 -1.61305,37.308368 -0.18961,1.214414 0.50563,2.642245 1.65958,3.064479 C 10.89924,51.197326 21.24895,52 32,52 c 8.16617,0 16.64029,-1.6036 23.02724,-3.40345 3.05674,-0.861395 7.32255,-2.86968 7.03799,-4.669887 C 60.43359,33.604947 59.43359,18.778363 59.43359,8.5 c 0,-2.2355027 -1.784,-4 -4,-4 H 32 Z"
     sodipodi:nodetypes="sscscsscscs" /><path
     id="path5"
     style="display:inline;overflow:visible;opacity:0.5;fill:none;stroke:url(#linearGradient11-2);stroke-linecap:butt;stroke-linejoin:miter;stroke-opacity:0.74902;marker:none;enable-background:accumulate"
     d="M 8.5,5.5097656 H 32 55.43359 c 0.83993,0 1.57803,0.3298414 2.11719,0.8671875 C 58.08994,6.9142992 58.42383,7.650919 58.42383,8.5 58.42383,18.818191 59.2894,33.696226 61,44 61.16961,45.021711 58.49599,46.520896 56.06109,47.214533 48.39319,49.398909 37.87094,51 32,51 24.87821,51 11.93505,50.656778 4.50531,47.776677 4.02008,47.588579 3.71202,47.001154 3.79738,46.487701 5.51015,36.185539 5.50977,18.822558 5.50977,8.5 5.50977,7.650919 5.84365,6.9142992 6.38281,6.3769531 6.92198,5.839607 7.66007,5.5097656 8.5,5.5097656 Z"
     sodipodi:nodetypes="scssscscsssss" /><path
     d="m 14.60871,16.044437 q -0.12133,0 -0.22533,-0.03467 -0.32933,-0.06933 -0.468,-0.398666 -0.104,-0.294666 0.052,-0.658665 0.156,-0.364 0.45067,-0.814666 0.104,-0.155999 0.19066,-0.311999 0.104,-0.173333 0.17334,-0.311999 0.052,-0.06933 0.0867,-0.173333 -0.52,-0.08667 -1.21333,-0.03467 -0.676,0.03467 -1.52534,0.26 -0.76266,0.190666 -1.61199,0.502665 Q 9.66876,14.3631 8.71543,14.7791 8.52476,14.86577 8.33409,14.79643 8.14343,14.70976 8.05676,14.519097 q -0.104,-0.190666 -0.0173,-0.398666 0.0867,-0.207999 0.27733,-0.294666 0.988,-0.433332 1.85466,-0.745332 0.884,-0.329333 1.69867,-0.519999 2.13199,-0.537332 3.48399,-0.173333 0.39867,0.104 0.55467,0.485333 0.15599,0.398665 -0.0693,0.866665 -0.22534,0.450665 -0.53734,0.953331 -0.0347,0.03467 -0.0693,0.08667 -0.0173,0.052 -0.052,0.121333 0.39867,-0.08667 1.16133,-0.346666 0.78,-0.26 2.16667,-0.762666 0.19066,-0.06933 0.38133,0.03467 0.208,0.08667 0.27733,0.294666 0.0867,0.190666 0,0.398666 -0.0867,0.190666 -0.312,0.277333 -0.79733,0.277333 -1.45599,0.502666 -0.65867,0.225332 -1.17867,0.381332 -0.71066,0.208 -1.07466,0.294666 -0.34667,0.06933 -0.53734,0.06933 z m 10.20933,0 q -0.12133,0 -0.22533,-0.03467 -0.32934,-0.06933 -0.468,-0.398666 -0.104,-0.294666 0.052,-0.658665 0.156,-0.364 0.45066,-0.814666 0.104,-0.155999 0.19067,-0.311999 0.104,-0.173333 0.17333,-0.311999 0.052,-0.06933 0.0867,-0.173333 -0.52,-0.08667 -1.21333,-0.03467 -0.676,0.03467 -1.52533,0.26 -0.76266,0.190666 -1.61199,0.502665 -0.84934,0.294666 -1.80267,0.710666 -0.19066,0.08667 -0.38133,0.01733 -0.19067,-0.08667 -0.27733,-0.277333 -0.104,-0.190666 -0.0173,-0.398666 0.0867,-0.207999 0.27733,-0.294666 0.988,-0.433332 1.85466,-0.745332 0.884,-0.329333 1.69867,-0.519999 2.13199,-0.537332 3.48399,-0.173333 0.39867,0.104 0.55466,0.485333 0.156,0.398665 -0.0693,0.866665 -0.22534,0.450665 -0.53734,0.953331 -0.0347,0.03467 -0.0693,0.08667 -0.0173,0.052 -0.052,0.121333 0.39867,-0.08667 1.16133,-0.346666 0.78,-0.26 2.16667,-0.762666 0.19066,-0.06933 0.38133,0.03467 0.208,0.08667 0.27733,0.294666 0.0867,0.190666 0,0.398666 -0.0867,0.190666 -0.312,0.277333 -0.79733,0.277333 -1.45599,0.502666 -0.65867,0.225332 -1.17867,0.381332 -0.71067,0.208 -1.07466,0.294666 -0.34667,0.06933 -0.53734,0.06933 z m 5.512,1.161331 q -0.13867,0 -0.26,-0.01733 -0.104,-0.01733 -0.22533,-0.052 -0.312,-0.08667 -0.43333,-0.363999 -0.156,-0.346666 0,-0.831998 0.17333,-0.502666 0.55466,-1.282665 0.0693,-0.138666 0.13867,-0.311999 0.0693,-0.173333 0.156,-0.329333 -0.22534,0.08667 -0.48533,0.294666 -0.24267,0.190667 -0.50267,0.398666 -0.17333,0.138667 -0.38133,0.104 -0.22534,-0.03467 -0.364,-0.190666 -0.13867,-0.173333 -0.104,-0.381333 0.0347,-0.207999 0.19066,-0.363999 0.24267,-0.173333 0.50267,-0.381333 0.26,-0.207999 0.55467,-0.346666 0.71066,-0.363999 1.29999,-0.190666 0.27734,0.052 0.416,0.346666 0.13867,0.294666 -0.0173,0.693332 -0.13866,0.398666 -0.48533,1.126665 -0.0867,0.207999 -0.19066,0.415999 -0.0867,0.207999 -0.17334,0.398666 -0.0347,0.06933 -0.052,0.121333 -0.0173,0.052 -0.0347,0.104 0.17333,-0.01733 0.43333,-0.104 0.27734,-0.08667 0.624,-0.26 0.364,-0.190666 0.832,-0.502665 0.468,-0.312 1.07467,-0.779999 0.468,-0.381333 0.88399,-0.745332 0.416,-0.363999 0.728,-0.658665 0.312,-0.294666 0.50267,-0.485333 0.19067,-0.190666 0.19067,-0.190666 0.20799,-0.242666 0.50266,-0.156 0.13867,0.03467 0.22533,0.121333 0.0867,0.08667 0.13867,0.173333 0.12133,0.242667 0.0173,0.571999 -0.104,0.329333 -0.38133,1.022665 -0.104,0.225333 -0.208,0.450666 -0.0867,0.225333 -0.17334,0.415999 -0.0173,0.08667 -0.052,0.190666 0.24267,-0.03467 0.52,-0.190666 0.27733,-0.156 0.55467,-0.346666 0.27733,-0.190666 0.52,-0.398666 0.24266,-0.225333 0.43333,-0.381332 0.17333,-0.156 0.38133,-0.138667 0.208,0.01733 0.364,0.173333 0.13867,0.173333 0.12133,0.381333 0,0.207999 -0.17333,0.363999 -0.39866,0.363999 -0.81466,0.693332 -0.416,0.311999 -0.84934,0.554666 -0.41599,0.225333 -0.84933,0.329332 -0.43333,0.08667 -0.84933,-0.01733 -0.27733,-0.104 -0.39866,-0.346666 -0.104,-0.242666 -0.0693,-0.519999 0.052,-0.294666 0.208,-0.745332 -0.19067,0.173333 -0.39867,0.329333 -0.19067,0.156 -0.416,0.346666 -2.39199,1.889329 -3.72666,1.889329 z M 42.11668,16.21777 q -0.208,0 -0.34667,-0.121333 -0.27733,-0.225333 -0.156,-0.571999 0,-0.01733 0.12134,-0.415999 0.13866,-0.398666 0.312,-0.901331 0.0867,-0.294666 0.156,-0.502666 0.0693,-0.225333 0.12133,-0.398666 -0.364,0.138666 -0.832,0.311999 -0.468,0.173333 -1.00533,0.381333 -0.52,0.190666 -1.07467,0.398666 -0.55466,0.208 -1.07466,0.398666 -0.19067,0.06933 -0.38133,-0.01733 -0.208,-0.104 -0.29467,-0.312 -0.0693,-0.190666 0.0347,-0.381332 0.0867,-0.208 0.29467,-0.294667 0.78,-0.277332 1.61199,-0.589332 0.84934,-0.311999 1.54267,-0.571999 0.69333,-0.259999 1.14399,-0.433332 0.468,-0.173333 0.468,-0.173333 0.0867,-0.01733 0.156,-0.01733 0.0867,-0.01733 0.17334,0.01733 0.24266,0.03467 0.34666,0.277333 0.0867,0.138666 0.0693,0.363999 0,0.208 -0.0867,0.606665 -0.052,0.225333 -0.13866,0.502666 -0.0693,0.26 -0.19067,0.606666 -0.0173,0.06933 -0.0347,0.121333 -0.0173,0.052 -0.0347,0.121333 0.69333,-0.381333 1.69866,-0.797332 0.19067,-0.08667 0.38134,0 0.19066,0.06933 0.27733,0.26 0.104,0.190666 0.0173,0.398665 -0.0867,0.208 -0.27733,0.294667 -0.58934,0.259999 -1.092,0.502665 -0.50267,0.242666 -0.86667,0.433333 -0.43333,0.225333 -0.78,0.415999 -0.10399,0.08667 -0.26,0.08667 z m 8.87465,-0.173333 q -0.12133,0 -0.22534,-0.03467 -0.32933,-0.06933 -0.46799,-0.398666 -0.104,-0.294666 0.052,-0.658665 0.156,-0.364 0.45066,-0.814666 0.104,-0.155999 0.19067,-0.311999 0.104,-0.173333 0.17333,-0.311999 0.052,-0.06933 0.0867,-0.173333 -0.52,-0.08667 -1.21333,-0.03467 -0.676,0.03467 -1.52533,0.26 -0.76267,0.190666 -1.612,0.502665 -0.84933,0.294666 -1.80266,0.710666 -0.19067,0.08667 -0.38133,0.01733 -0.19067,-0.08667 -0.27734,-0.277333 -0.104,-0.190666 -0.0173,-0.398666 0.0867,-0.207999 0.27734,-0.294666 0.98799,-0.433332 1.85466,-0.745332 0.884,-0.329333 1.69866,-0.519999 2.132,-0.537332 3.484,-0.173333 0.39866,0.104 0.55466,0.485333 0.156,0.398665 -0.0693,0.866665 -0.22533,0.450665 -0.53733,0.953331 -0.0347,0.03467 -0.0693,0.08667 -0.0173,0.052 -0.052,0.121333 0.39867,-0.08667 1.16133,-0.346666 0.78,-0.26 2.16666,-0.762666 0.19067,-0.06933 0.38134,0.03467 0.208,0.08667 0.27733,0.294666 0.0867,0.190666 0,0.398666 -0.0867,0.190666 -0.312,0.277333 -0.79733,0.277333 -1.456,0.502666 -0.65866,0.225332 -1.17866,0.381332 -0.71067,0.208 -1.07467,0.294666 -0.34666,0.06933 -0.53733,0.06933 z"
     id="text27"
     style="font-size:17.3333px;font-family:'Redacted Script';-inkscape-font-specification:'Redacted Script';opacity:0.5"
     aria-label="trans" /><path
     d="m 14.60871,24.673334 q -0.12133,0 -0.22533,-0.03467 -0.32933,-0.06933 -0.468,-0.398666 -0.104,-0.294666 0.052,-0.658666 0.156,-0.363999 0.45067,-0.814665 0.104,-0.156 0.19066,-0.311999 0.104,-0.173333 0.17334,-0.312 0.052,-0.06933 0.0867,-0.173333 -0.52,-0.08667 -1.21333,-0.03467 -0.676,0.03467 -1.52534,0.259999 -0.76266,0.190667 -1.61199,0.502666 -0.84933,0.294666 -1.80266,0.710665 -0.19067,0.08667 -0.38134,0.01733 -0.19066,-0.08667 -0.27733,-0.277333 -0.104,-0.190667 -0.0173,-0.398666 0.0867,-0.208 0.27733,-0.294666 0.988,-0.433333 1.85466,-0.745332 0.884,-0.329333 1.69867,-0.519999 2.13199,-0.537332 3.48399,-0.173333 0.39867,0.104 0.55467,0.485332 0.15599,0.398666 -0.0693,0.866665 -0.22534,0.450666 -0.53734,0.953332 -0.0347,0.03467 -0.0693,0.08667 -0.0173,0.052 -0.052,0.121333 0.39867,-0.08667 1.16133,-0.346666 0.78,-0.259999 2.16667,-0.762665 0.19066,-0.06933 0.38133,0.03467 0.208,0.08667 0.27733,0.294666 0.0867,0.190666 0,0.398666 -0.0867,0.190666 -0.312,0.277333 -0.79733,0.277332 -1.45599,0.502665 -0.65867,0.225333 -1.17867,0.381333 -0.71066,0.207999 -1.07466,0.294666 -0.34667,0.06933 -0.53734,0.06933 z m 6.43067,-0.346666 q -0.0867,0 -0.13867,-0.01733 -0.27733,-0.06933 -0.39866,-0.208 -0.104,-0.155999 -0.13867,-0.242666 -0.13867,-0.381333 0.0693,-0.779998 0.22534,-0.416 0.55467,-0.866665 0.104,-0.138667 0.19066,-0.294667 0.0867,-0.155999 0.17334,-0.294666 0.0173,-0.01733 0.052,-0.06933 -0.104,0.03467 -0.26,0.104 -0.13867,0.06933 -0.32933,0.208 -0.31201,0.190666 -0.65867,0.502665 -0.34667,0.294666 -0.71067,0.623999 -0.0867,0.08667 -0.19066,0.173333 -0.0867,0.06933 -0.17334,0.156 -0.156,0.138666 -0.36399,0.138666 -0.22534,-0.01733 -0.364,-0.190666 -0.156,-0.156 -0.13867,-0.363999 0.0173,-0.225333 0.17333,-0.364 0.0867,-0.08667 0.19067,-0.155999 0.0867,-0.08667 0.17333,-0.173333 0.416,-0.381333 0.81467,-0.710666 0.416,-0.346666 0.79733,-0.589332 0.39866,-0.242666 0.78,-0.346666 0.39866,-0.121333 0.76266,-0.01733 0.29467,0.08667 0.416,0.242666 0.12133,0.156 0.156,0.277333 0.156,0.398666 -0.0693,0.814665 -0.22533,0.415999 -0.572,0.918665 -0.0347,0.03467 -0.0867,0.121333 -0.0347,0.06933 -0.0867,0.138666 0.26,-0.104 0.65867,-0.242666 0.416,-0.156 1.02266,-0.398666 0.22533,-0.06933 0.416,0.03467 0.19067,0.08667 0.26,0.294666 0.0867,0.190666 -0.0173,0.398666 -0.0867,0.190666 -0.27733,0.277333 -0.55467,0.190666 -1.00533,0.346666 -0.45067,0.155999 -0.76267,0.277332 -0.17333,0.06933 -0.312,0.121333 -0.12133,0.03467 -0.22533,0.06933 -0.13867,0.03467 -0.22533,0.06933 -0.0693,0.01733 -0.156,0.01733 z m 4.76665,0 q -0.0867,0 -0.13866,-0.01733 -0.27734,-0.06933 -0.39867,-0.208 -0.104,-0.155999 -0.13867,-0.242666 -0.13866,-0.381333 0.0693,-0.779998 0.22534,-0.416 0.55467,-0.866665 0.104,-0.138667 0.19067,-0.294667 0.0867,-0.155999 0.17333,-0.294666 0.0173,-0.01733 0.052,-0.06933 -0.104,0.03467 -0.26,0.104 -0.13867,0.06933 -0.32933,0.208 -0.312,0.190666 -0.65867,0.502665 -0.34667,0.294666 -0.71067,0.623999 -0.0867,0.08667 -0.19066,0.173333 -0.0867,0.06933 -0.17333,0.156 -0.156,0.138666 -0.364,0.138666 -0.22534,-0.01733 -0.364,-0.190666 -0.156,-0.156 -0.13867,-0.363999 0.0173,-0.225333 0.17333,-0.364 0.0867,-0.08667 0.19067,-0.155999 0.0867,-0.08667 0.17333,-0.173333 0.416,-0.381333 0.81467,-0.710666 0.416,-0.346666 0.79733,-0.589332 0.39867,-0.242666 0.78,-0.346666 0.39866,-0.121333 0.76266,-0.01733 0.29467,0.08667 0.416,0.242666 0.12134,0.156 0.156,0.277333 0.156,0.398666 -0.0693,0.814665 -0.22533,0.415999 -0.572,0.918665 -0.0347,0.03467 -0.0867,0.121333 -0.0347,0.06933 -0.0867,0.138666 0.26,-0.104 0.65867,-0.242666 0.416,-0.156 1.02266,-0.398666 0.22534,-0.06933 0.416,0.03467 0.19067,0.08667 0.26,0.294666 0.0867,0.190666 -0.0173,0.398666 -0.0867,0.190666 -0.27733,0.277333 -0.55467,0.190666 -1.00533,0.346666 -0.45067,0.155999 -0.76267,0.277332 -0.17333,0.06933 -0.312,0.121333 -0.12133,0.03467 -0.22533,0.06933 -0.13867,0.03467 -0.22533,0.06933 -0.0693,0.01733 -0.156,0.01733 z m 4.76665,0 q -0.0867,0 -0.13867,-0.01733 -0.27733,-0.06933 -0.39866,-0.208 -0.104,-0.155999 -0.13867,-0.242666 -0.13866,-0.381333 0.0693,-0.779998 0.22533,-0.416 0.55467,-0.866665 0.104,-0.138667 0.19066,-0.294667 0.0867,-0.155999 0.17334,-0.294666 0.0173,-0.01733 0.052,-0.06933 -0.104,0.03467 -0.26,0.104 -0.13867,0.06933 -0.32933,0.208 -0.312,0.190666 -0.65867,0.502665 -0.34667,0.294666 -0.71067,0.623999 -0.0867,0.08667 -0.19066,0.173333 -0.0867,0.06933 -0.17334,0.156 -0.156,0.138666 -0.36399,0.138666 -0.22534,-0.01733 -0.364,-0.190666 -0.156,-0.156 -0.13867,-0.363999 0.0173,-0.225333 0.17333,-0.364 0.0867,-0.08667 0.19067,-0.155999 0.0867,-0.08667 0.17333,-0.173333 0.416,-0.381333 0.81467,-0.710666 0.416,-0.346666 0.79733,-0.589332 0.39866,-0.242666 0.78,-0.346666 0.39866,-0.121333 0.76266,-0.01733 0.29467,0.08667 0.416,0.242666 0.12133,0.156 0.156,0.277333 0.156,0.398666 -0.0693,0.814665 -0.22533,0.415999 -0.572,0.918665 -0.0347,0.03467 -0.0867,0.121333 -0.0347,0.06933 -0.0867,0.138666 0.26,-0.104 0.65867,-0.242666 0.416,-0.156 1.02266,-0.398666 0.22534,-0.06933 0.416,0.03467 0.19067,0.08667 0.26,0.294666 0.0867,0.190666 -0.0173,0.398666 -0.0867,0.190666 -0.27733,0.277333 -0.55467,0.190666 -1.00533,0.346666 -0.45067,0.155999 -0.76267,0.277332 -0.17333,0.06933 -0.312,0.121333 -0.12133,0.03467 -0.22533,0.06933 -0.13867,0.03467 -0.22533,0.06933 -0.0693,0.01733 -0.156,0.01733 z m 8.54531,0.346666 q -0.12133,0 -0.22533,-0.03467 -0.32933,-0.06933 -0.468,-0.398666 -0.104,-0.294666 0.052,-0.658666 0.156,-0.363999 0.45066,-0.814665 0.104,-0.156 0.19067,-0.311999 0.104,-0.173333 0.17333,-0.312 0.052,-0.06933 0.0867,-0.173333 -0.51999,-0.08667 -1.21333,-0.03467 -0.676,0.03467 -1.52533,0.259999 -0.76266,0.190667 -1.61199,0.502666 -0.84934,0.294666 -1.80267,0.710665 -0.19066,0.08667 -0.38133,0.01733 -0.19067,-0.08667 -0.27733,-0.277333 -0.104,-0.190667 -0.0173,-0.398666 0.0867,-0.208 0.27733,-0.294666 0.988,-0.433333 1.85466,-0.745332 0.884,-0.329333 1.69867,-0.519999 2.13199,-0.537332 3.48399,-0.173333 0.39867,0.104 0.55467,0.485332 0.15599,0.398666 -0.0693,0.866665 -0.22533,0.450666 -0.53733,0.953332 -0.0347,0.03467 -0.0693,0.08667 -0.0173,0.052 -0.052,0.121333 0.39867,-0.08667 1.16133,-0.346666 0.78,-0.259999 2.16667,-0.762665 0.19066,-0.06933 0.38133,0.03467 0.208,0.08667 0.27733,0.294666 0.0867,0.190666 0,0.398666 -0.0867,0.190666 -0.312,0.277333 -0.79733,0.277332 -1.456,0.502665 -0.65866,0.225333 -1.17866,0.381333 -0.71067,0.207999 -1.07466,0.294666 -0.34667,0.06933 -0.53734,0.06933 z m 10.20933,0 q -0.12133,0 -0.22533,-0.03467 -0.32934,-0.06933 -0.468,-0.398666 -0.104,-0.294666 0.052,-0.658666 0.156,-0.363999 0.45066,-0.814665 0.104,-0.156 0.19067,-0.311999 0.104,-0.173333 0.17333,-0.312 0.052,-0.06933 0.0867,-0.173333 -0.52,-0.08667 -1.21333,-0.03467 -0.676,0.03467 -1.52533,0.259999 -0.76266,0.190667 -1.612,0.502666 -0.84933,0.294666 -1.80266,0.710665 -0.19067,0.08667 -0.38133,0.01733 -0.19067,-0.08667 -0.27734,-0.277333 -0.104,-0.190667 -0.0173,-0.398666 0.0867,-0.208 0.27733,-0.294666 0.98799,-0.433333 1.85466,-0.745332 0.884,-0.329333 1.69866,-0.519999 2.132,-0.537332 3.484,-0.173333 0.39866,0.104 0.55466,0.485332 0.156,0.398666 -0.0693,0.866665 -0.22533,0.450666 -0.53733,0.953332 -0.0347,0.03467 -0.0693,0.08667 -0.0173,0.052 -0.052,0.121333 0.39867,-0.08667 1.16133,-0.346666 0.78,-0.259999 2.16666,-0.762665 0.19067,-0.06933 0.38134,0.03467 0.208,0.08667 0.27733,0.294666 0.0867,0.190666 0,0.398666 -0.0867,0.190666 -0.312,0.277333 -0.79733,0.277332 -1.456,0.502665 -0.65866,0.225333 -1.17866,0.381333 -0.71067,0.207999 -1.07467,0.294666 -0.34666,0.06933 -0.53733,0.06933 z"
     id="text28"
     style="font-size:17.3333px;font-family:'Redacted Script';-inkscape-font-specification:'Redacted Script';opacity:0.5"
     aria-label="rights" /></svg>
