<?xml version="1.0" encoding="UTF-8" standalone="no"?>
<!-- Created with Inkscape (http://www.inkscape.org/) -->

<svg
   width="128"
   height="128"
   viewBox="0 0 128 128"
   version="1.1"
   id="svg1"
   inkscape:version="1.3.2 (1:1.3.2+202311252150+091e20ef0f)"
   sodipodi:docname="monogram_opt.svg"
   inkscape:export-filename="monogram.png"
   inkscape:export-xdpi="96"
   inkscape:export-ydpi="96"
   xmlns:inkscape="http://www.inkscape.org/namespaces/inkscape"
   xmlns:sodipodi="http://sodipodi.sourceforge.net/DTD/sodipodi-0.dtd"
   xmlns="http://www.w3.org/2000/svg"
   xmlns:svg="http://www.w3.org/2000/svg">
  <sodipodi:namedview
     id="namedview1"
     pagecolor="#ffffff"
     bordercolor="#000000"
     borderopacity="0.25"
     inkscape:showpageshadow="2"
     inkscape:pageopacity="0.0"
     inkscape:pagecheckerboard="0"
     inkscape:deskcolor="#d1d1d1"
     inkscape:document-units="mm"
     labelstyle="default"
     inkscape:zoom="2.737234"
     inkscape:cx="58.453169"
     inkscape:cy="99.370388"
     inkscape:window-width="2048"
     inkscape:window-height="1091"
     inkscape:window-x="0"
     inkscape:window-y="30"
     inkscape:window-maximized="1"
     inkscape:current-layer="layer1" />
  <defs
     id="defs1" />
  <g
     inkscape:label="Layer 1"
     inkscape:groupmode="layer"
     id="layer1">
    <text
       xml:space="preserve"
       style="font-weight:normal;font-size:13.3333px;font-family:'Monomaniac One';-inkscape-font-specification:'Monomaniac One';letter-spacing:0px;fill:#000000;stroke:none;stroke-width:9;stroke-opacity:0.499029;fill-opacity:1;font-style:normal;font-stretch:normal;font-variant:normal"
       x="34.855125"
       y="53.757267"
       id="text1"><tspan
         sodipodi:role="line"
         id="tspan1"
         x="34.855125"
         y="53.757267" /></text>
    <text
       xml:space="preserve"
       style="font-style:normal;font-variant:normal;font-weight:bold;font-stretch:normal;font-size:10.6667px;font-family:'Space Mono';-inkscape-font-specification:'Space Mono Bold';letter-spacing:0px;fill:#000000;stroke-width:9;stroke-opacity:0.499029"
       x="35.970726"
       y="50.9296"
       id="text3"><tspan
         sodipodi:role="line"
         id="tspan3"
         x="35.970726"
         y="50.9296" /></text>
    <path
       d="M 61.505113,69.574654 H 47.681285 L 45.75797,37.599539 v -5.769946 h -1.442486 v 5.769946 L 42.392168,69.574654 H 28.56834 l -1.442486,-42.07252 h 7.212432 l 0.961658,31.975115 v 5.409324 h 1.442486 v -5.409324 l 1.923315,-31.975115 h 12.741963 l 1.923315,31.975115 v 5.409324 h 1.442487 v -5.409324 l 0.961657,-31.975115 h 7.212432 z"
       id="text2-9"
       style="font-weight:bold;font-size:60.1036px;font-family:'Space Mono';-inkscape-font-specification:'Space Mono Bold';letter-spacing:0px;stroke-width:50.7123;stroke-opacity:0.499029"
       aria-label="W" />
    <path
       d="m 51.768413,67.660404 0,36.173206 h 8.474588 l 0,-36.173206 z m -13.072504,2.274852 c -3.305691,0 -5.81501,0.8715 -7.527959,2.614501 -1.712949,1.743001 -2.569423,4.297398 -2.569423,7.663192 V 92.20359 c 0,3.365794 0.856474,5.920191 2.569423,7.663192 1.712949,1.742998 4.222268,2.614498 7.527959,2.614498 3.305691,0 5.81501,-0.8715 7.527959,-2.614498 1.712949,-1.743001 2.569423,-4.297398 2.569423,-7.663192 V 80.212949 c 0,-3.365794 -0.856474,-5.920191 -2.569423,-7.663192 -1.712949,-1.743001 -4.222268,-2.614501 -7.527959,-2.614501 z m 0,6.76164 c 1.111914,0 1.667871,0.570983 1.667871,1.712949 v 15.596849 c 0,1.141966 -0.555957,1.712949 -1.667871,1.712949 -1.111914,0 -1.667871,-0.570983 -1.667871,-1.712949 V 78.409845 c 0,-1.141966 0.555957,-1.712949 1.667871,-1.712949 z"
       id="text12-9"
       style="font-size:45.0776px;font-family:'Black Han Sans';-inkscape-font-specification:'Black Han Sans';letter-spacing:0px;stroke-width:50.7123;stroke-opacity:0.499029"
       aria-label="이"
       sodipodi:nodetypes="cccccssssssssssssssssss" />
    <path
       d="m 103.78191,60.80269 v 20.386853 h -9.039455 v -6.491097 h -3.365754 q -0.817398,3.269589 -3.558083,5.048631 -2.692603,1.730959 -6.971919,1.730959 -5.096713,0 -7.981645,-2.452192 -2.83685,-2.500275 -2.83685,-6.923837 v -1.923288 q 0,-4.423562 2.83685,-6.875755 2.884932,-2.500274 7.981645,-2.500274 4.183151,0 6.875755,1.682877 2.692603,1.682877 3.558082,4.760138 h 3.461919 V 60.80269 Z m -21.252334,8.895207 q 0,-0.817397 -0.43274,-1.250137 -0.432739,-0.43274 -1.250137,-0.43274 -0.769315,0 -1.250137,0.43274 -0.43274,0.43274 -0.43274,1.250137 v 2.884932 q 0,0.769315 0.43274,1.250137 0.480822,0.43274 1.250137,0.43274 0.817398,0 1.250137,-0.43274 0.43274,-0.480822 0.43274,-1.250137 z M 70.989848,97.345161 V 82.920502 h 32.792062 v 14.424659 z m 9.039454,-8.125891 v 1.827123 H 94.742455 V 89.21927 Z"
       id="text11-6"
       style="font-size:48.0822px;font-family:'Black Han Sans';-inkscape-font-specification:'Black Han Sans';letter-spacing:0px;stroke-width:54.0925;stroke-opacity:0.499029"
       transform="scale(0.93751087,1.0666543)"
       aria-label="엄" />
    <path
       style="font-size:45.0776px;font-family:'Monaspace Neon Var';-inkscape-font-specification:'Monaspace Neon Var, @wght=750';font-variation-settings:'wght' 750;letter-spacing:-16.2843px;stroke-width:50.7123;stroke-opacity:0.499029"
       d="m 33.178245,-64 v -20.194764 l 1.014246,1.532638 h -8.564744 v -5.567083 l 13.613435,-0.608548 0.788858,0.766319 V -64 Z m -7.550498,-5.589622 H 47.557999 V -64 H 25.627747 Z m 9.917072,-22.313412 q -1.30725,0 -2.321496,-0.495853 -0.991708,-0.518392 -1.555178,-1.442483 -0.56347,-0.94663 -0.56347,-2.186264 0,-1.87072 1.217096,-2.975121 1.217095,-1.104405 3.223048,-1.104405 2.028492,0 3.245587,1.104405 1.217095,1.104401 1.217095,2.975121 0,1.893259 -1.217095,3.020199 -1.217095,1.104401 -3.245587,1.104401 z m 1.746691,22.313412 H 59.244301 V -64 H 37.29151 Z M 44.842008,-64 l 0.02254,-30.449918 1.014246,1.532639 h -8.564744 v -5.567084 l 13.613435,-0.586009 0.788858,0.743781 L 51.693803,-64 Z m 4.113265,-5.589622 H 70.908064 V -64 H 48.955273 Z M 56.505771,-64 l 0.02254,-30.449918 1.014246,1.532639 h -8.564744 v -5.567084 l 13.613435,-0.586009 0.788858,0.743781 L 63.357566,-64 Z"
       id="text5-3"
       transform="rotate(90)"
       aria-label="ill" />
    <rect
       style="font-variation-settings:'wght' 675;fill:none;stroke:#000000;stroke-width:10.9362;stroke-dasharray:none;stroke-opacity:1"
       id="rect6-8"
       width="98.771271"
       height="98.771271"
       x="14.614374"
       y="15.469806" />
  </g>
</svg>
